<svg height="300" viewBox="-61 0 512 512" width="300" xmlns="http://www.w3.org/2000/svg" version="1.1" xmlns:xlink="http://www.w3.org/1999/xlink" xmlns:svgjs="http://svgjs.dev/svgjs"><g transform="matrix(1,0,0,1,0,0)"><path d="m0 376.996094c0 28.917968 22.441406 52.679687 50.816406 54.828125l-29.234375 58.464843c-3.703125 7.410157-.699219 16.421876 6.710938 20.125 2.152343 1.074219 4.441406 1.585938 6.695312 1.585938 5.5 0 10.800781-3.039062 13.425781-8.296875l5.859376-11.707031h281.457031l5.851562 11.707031c2.628907 5.257813 7.925781 8.296875 13.429688 8.296875 2.253906 0 4.542969-.511719 6.695312-1.585938 7.410157-3.703124 10.414063-12.714843 6.707031-20.125l-29.234374-58.464843c28.378906-2.148438 50.816406-25.90625 50.816406-54.828125v-64.996094h-389.996094zm69.273438 85 15-30h221.457031l15 30zm205.726562-120h40c8.28125 0 15 6.71875 15 15 0 8.285156-6.71875 15-15 15h-40c-8.285156 0-15-6.714844-15-15 0-8.28125 6.714844-15 15-15zm-200 0h40c8.285156 0 15 6.71875 15 15 0 8.285156-6.714844 15-15 15h-40c-8.285156 0-15-6.714844-15-15 0-8.28125 6.714844-15 15-15zm0 0" fill="#ffffffff" data-original-color="#000000ff" stroke="none"/><path d="m335 0h-280c-30.324219 0-55 24.671875-55 55v65h390v-65c0-30.328125-24.671875-55-55-55zm-80 90h-120c-8.285156 0-15-6.714844-15-15s6.714844-15 15-15h120c8.285156 0 15 6.714844 15 15s-6.714844 15-15 15zm0 0" fill="#ffffffff" data-original-color="#000000ff" stroke="none"/><path d="m0 150h390v132h-390zm0 0" fill="#ffffffff" data-original-color="#000000ff" stroke="none"/></g></svg>