<svg id="car-rental" height="300" viewBox="0 0 15 15" width="300" xmlns="http://www.w3.org/2000/svg" version="1.1" xmlns:xlink="http://www.w3.org/1999/xlink" xmlns:svgjs="http://svgjs.dev/svgjs"><g transform="matrix(1,0,0,1,0,0)"><path d="m12.6 8.7-1.1-2.2a1.05 1.05 0 0 0 -.9-.5h-6.2a1.05 1.05 0 0 0 -.9.5l-1.1 2.2-1.24 1.152a.5.5 0 0 0 -.16.367v4.281a.5.5 0 0 0 .5.5h2c.2 0 .5-.2.5-.4v-.6h7v.5c0 .2.2.5.4.5h2.1a.5.5 0 0 0 .5-.5v-4.281a.5.5 0 0 0 -.16-.367zm-8.1-1.7h6l1 2h-8zm.5 4.6c0 .2-.3.4-.5.4h-2.1c-.2 0-.4-.3-.4-.5v-1.1c.1-.3.3-.5.6-.4l2 .4c.2 0 .4.3.4.5zm8-.1c0 .2-.2.5-.4.5h-2.1c-.2 0-.5-.2-.5-.4v-.7c0-.2.2-.5.4-.5l2-.4c.3-.1.5.1.6.4zm.5-11.5h-2.5a1 1 0 0 0 -1 1h-8l-1 1v1l1 1 1.5-1.5 1.5 1.5 1.5-1.5 1.5 1.5h2a1 1 0 0 0 1 1h2.5a.5.5 0 0 0 .5-.5v-4a.5.5 0 0 0 -.5-.5zm-.5 3.5a.5.5 0 0 1 -1 0v-2a.5.5 0 0 1 1 0z" fill="#ffffffff" data-original-color="#000000ff" stroke="none"/></g></svg>