<svg xmlns="http://www.w3.org/2000/svg" xmlns:xlink="http://www.w3.org/1999/xlink" version="1.1" id="Layer_1" x="0px" y="0px" viewBox="0 0 512 512" style="enable-background:new 0 0 512 512;" xml:space="preserve" width="300" height="300" xmlns:svgjs="http://svgjs.dev/svgjs"><g transform="matrix(1,0,0,1,0,0)"><g>
	<polygon points="229.647,274.886 250.858,253.675 181,183.816 181,281.097 192.514,269.583  " fill="#ffffffff" data-original-color="#000000ff" stroke="none"/>
	<path d="M331,171.409V55.267L181,5.074c0,10.529,0,151.823,0,148.743l34.775-34.775L331,171.409z" fill="#ffffffff" data-original-color="#000000ff" stroke="none"/>
	<path d="M424.56,51.42C433.129,75.092,455.819,92,481,92c10.913,0,22.118-4.109,31-9.286V0l-90.826,32.047   C421.41,38.24,422.379,45.398,424.56,51.42z" fill="#ffffffff" data-original-color="#000000ff" stroke="none"/>
	<path d="M331,333.816l-16.509-16.509l-21.211,21.211l5.303,37.134l-50.698,50.698L208.1,360.066L181,343.801   c0,5.808,0,117.263,0,113.932l150,49.193V333.816z" fill="#ffffffff" data-original-color="#000000ff" stroke="none"/>
	<path d="M28.418,303.201C64.102,309.646,91,340.687,91,377v16.479c28.345,5.698,51.226,27.29,58.022,56.382   c0.522,2.225,1.064,5.246,1.432,8.818l0.546-0.194c0-46.943,0-406.736,0-452.758L0,65.849v237.699   C12.473,301.154,22.646,302.139,28.418,303.201z" fill="#ffffffff" data-original-color="#000000ff" stroke="none"/>
	<path d="M399.35,359.744l13.857-13.857L360.18,229.212l49.775-49.79c5.841-5.841,5.887-15.295,0-21.211   c-5.684-5.669-15.542-5.669-21.196,0l-49.805,49.775l-116.675-53.027l-13.857,13.857l84.858,84.858l-53.027,53.027l-37.134-5.303   l-12.935,12.935l39.771,23.877l23.877,39.771l12.935-12.935l-5.303-37.134l53.027-53.027L399.35,359.744z" fill="#ffffffff" data-original-color="#000000ff" stroke="none"/>
	<path d="M396.347,61.63c-2.164-5.984-3.472-13.067-4.336-19.179L361,54.514v89.017l6.533-6.531   c16.963-16.978,46.641-17.007,63.633,0c17.631,17.631,17.547,46.1,0,63.647l-35.068,35.068l53.027,116.675l-49.775,49.775   L361,363.816v142.456l151-59.121v-330.61c-9.441,3.375-20.477,5.458-31,5.458C443.222,122,409.208,97.138,396.347,61.63z" fill="#ffffffff" data-original-color="#000000ff" stroke="none"/>
	<path d="M119.813,456.688C115.038,436.268,97.021,422,76,422H61v-45c0-21.782-16.527-40.415-37.914-44.282   C16.025,331.442,8.168,332.06,0,334.682V512l120.843-42.755C121.02,465.055,120.791,460.86,119.813,456.688z" fill="#ffffffff" data-original-color="#000000ff" stroke="none"/>
</g></g></svg>